# xmcd
#
# Track frame offsets:
#	150
#	20281
#	47796
#	66596
#	94041
#	110076
#	128737
#	161661
#	183157
#	199975
#	219430
#	238085
#
# Disc length: 3411 seconds
#
# Revision: 0
# Processed by: cddbd v1.4PL0 Copyright (c) Steve Scherf et al.
# Submitted via: dBpowerAMP V4.0
#
DISCID=ac0d510c
DTITLE=Mike Watson - Biscuit On My Mind
DYEAR=1900
DGENRE=Blues
TTITLE0=Sweet Home Chicago
TTITLE1=The Sky Is Crying 
TTITLE2=Pride And Joy
TTITLE3=Thrill Is Gone
TTITLE4=Biscuit On My Mind
TTITLE5=My Luck
TTITLE6=Stormy Monday
TTITLE7=Honey Hush
TTITLE8=Matchbox
TTITLE9=Further On Up The Road
TTITLE10=Please Don't Let Our Good Thing End
TTITLE11=It's Lonely Here Tonight
EXTD=
EXTT0=
EXTT1=
EXTT2=
EXTT3=
EXTT4=
EXTT5=
EXTT6=
EXTT7=
EXTT8=
EXTT9=
EXTT10=
EXTT11=
PLAYORDER=
